# This file uses centimeters as units for non-parametric coordinates.

mtllib knife.mtl
g default
v -0.375618 -0.746175 0.513995
v -0.371144 -0.737392 0.509572
v -0.369716 -0.726885 0.507500
v -0.371551 -0.716255 0.508093
v -0.376369 -0.707119 0.511263
v -0.383438 -0.700869 0.516525
v -0.391680 -0.698456 0.523080
v -0.399842 -0.700247 0.529929
v -0.406680 -0.705970 0.536029
v -0.411153 -0.714753 0.540451
v -0.412582 -0.725260 0.542524
v -0.410747 -0.735890 0.541930
v -0.405928 -0.745026 0.538761
v -0.398860 -0.751276 0.533498
v -0.390618 -0.753689 0.526943
v -0.382456 -0.751898 0.520095
v -0.271261 -0.735269 0.641210
v -0.266787 -0.726486 0.636787
v -0.265359 -0.715979 0.634715
v -0.267194 -0.705349 0.635308
v -0.272012 -0.696213 0.638478
v -0.279080 -0.689963 0.643740
v -0.287323 -0.687550 0.650295
v -0.295484 -0.689341 0.657144
v -0.302322 -0.695064 0.663244
v -0.306796 -0.703847 0.667666
v -0.308224 -0.714354 0.669739
v -0.306389 -0.724984 0.669145
v -0.301571 -0.734120 0.665976
v -0.294503 -0.740370 0.660713
v -0.286260 -0.742783 0.654158
v -0.278099 -0.740992 0.647310
v -0.389346 -0.739294 0.487384
v -0.393819 -0.748077 0.491807
v -0.400657 -0.753800 0.497907
v -0.408819 -0.755591 0.504756
v -0.417061 -0.753178 0.511310
v -0.424130 -0.746928 0.516573
v -0.428948 -0.737792 0.519742
v -0.430783 -0.727162 0.520336
v -0.429355 -0.716656 0.518264
v -0.424881 -0.707872 0.513841
v -0.418043 -0.702149 0.507741
v -0.409881 -0.700358 0.500892
v -0.401639 -0.702771 0.494338
v -0.394571 -0.709021 0.489075
v -0.389752 -0.718157 0.485906
v -0.387917 -0.728787 0.485312
v -0.401865 -0.731053 0.496948
v -0.401972 -0.725460 0.496556
v -0.416835 -0.724897 0.508700
v -0.416728 -0.730489 0.509092
v -0.627294 -0.749008 0.221883
v -0.627186 -0.754600 0.222274
v -0.645750 -0.754424 0.229906
v -0.645857 -0.748831 0.229515
v -0.422206 -0.727575 0.471891
v -0.422098 -0.733167 0.472282
v -0.363844 -0.729788 0.424205
v -0.363736 -0.735380 0.424597
v -0.495922 -0.748263 0.276767
v -0.496030 -0.742671 0.276376
v -0.607955 -0.748650 0.221691
v -0.585373 -0.747952 0.225453
v -0.560546 -0.747020 0.231952
v -0.537149 -0.745714 0.244187
v -0.607847 -0.754242 0.222082
v -0.585265 -0.753544 0.225844
v -0.560438 -0.752612 0.232343
v -0.537041 -0.751306 0.244578
v -0.632568 -0.753749 0.195748
v -0.477794 -0.746469 0.257250
v -0.605804 -0.753252 0.195483
v -0.579742 -0.752447 0.199825
v -0.550848 -0.751362 0.207388
v -0.522656 -0.749789 0.222130
v -0.344049 -0.733434 0.406823
v -0.655850 -0.753527 0.205321
v -0.375618 -0.746175 0.513995
v -0.271261 -0.735269 0.641210
v -0.278099 -0.740992 0.647310
v -0.382456 -0.751898 0.520095
v -0.371144 -0.737392 0.509572
v -0.266787 -0.726486 0.636787
v -0.369716 -0.726885 0.507500
v -0.265359 -0.715979 0.634715
v -0.371551 -0.716255 0.508093
v -0.267194 -0.705349 0.635308
v -0.376369 -0.707119 0.511263
v -0.272012 -0.696213 0.638478
v -0.383438 -0.700869 0.516525
v -0.279080 -0.689963 0.643740
v -0.391680 -0.698456 0.523080
v -0.287323 -0.687550 0.650295
v -0.399842 -0.700247 0.529929
v -0.295484 -0.689341 0.657144
v -0.406680 -0.705970 0.536029
v -0.302322 -0.695064 0.663244
v -0.411153 -0.714753 0.540451
v -0.306796 -0.703847 0.667666
v -0.412582 -0.725260 0.542524
v -0.308224 -0.714354 0.669739
v -0.410747 -0.735890 0.541930
v -0.306389 -0.724984 0.669145
v -0.405928 -0.745026 0.538761
v -0.301571 -0.734120 0.665976
v -0.398860 -0.751276 0.533498
v -0.294503 -0.740370 0.660713
v -0.390618 -0.753689 0.526943
v -0.286260 -0.742783 0.654158
v -0.393819 -0.748077 0.491807
v -0.401865 -0.731053 0.496948
v -0.401972 -0.725460 0.496556
v -0.394571 -0.709021 0.489075
v -0.389752 -0.718157 0.485906
v -0.387917 -0.728787 0.485312
v -0.389346 -0.739294 0.487384
v -0.400657 -0.753800 0.497907
v -0.408819 -0.755591 0.504756
v -0.417061 -0.753178 0.511310
v -0.424130 -0.746928 0.516573
v -0.416728 -0.730489 0.509092
v -0.428948 -0.737792 0.519742
v -0.430783 -0.727162 0.520336
v -0.429355 -0.716656 0.518264
v -0.424881 -0.707872 0.513841
v -0.416835 -0.724897 0.508700
v -0.418043 -0.702149 0.507741
v -0.409881 -0.700358 0.500892
v -0.401639 -0.702771 0.494338
v -0.422098 -0.733167 0.472282
v -0.422206 -0.727575 0.471891
v -0.627294 -0.749008 0.221883
v -0.645857 -0.748831 0.229515
v -0.645750 -0.754424 0.229906
v -0.627186 -0.754600 0.222274
v -0.632568 -0.753749 0.195748
v -0.655850 -0.753527 0.205321
v -0.607847 -0.754242 0.222082
v -0.585265 -0.753544 0.225844
v -0.560438 -0.752612 0.232343
v -0.537041 -0.751306 0.244578
v -0.495922 -0.748263 0.276767
v -0.363736 -0.735380 0.424597
v -0.363844 -0.729788 0.424205
v -0.496030 -0.742671 0.276376
v -0.537149 -0.745714 0.244187
v -0.560546 -0.747020 0.231952
v -0.585373 -0.747952 0.225453
v -0.607955 -0.748650 0.221691
v -0.344049 -0.733434 0.406823
v -0.477794 -0.746469 0.257250
v -0.605804 -0.753252 0.195483
v -0.579742 -0.752447 0.199825
v -0.550848 -0.751362 0.207388
v -0.522656 -0.749789 0.222130
vn 0.560900 -0.726006 -0.397879
vn -0.059055 -0.555577 -0.829365
vn 0.356228 -0.394237 -0.847160
vn 0.722467 -0.408794 -0.557610
vn 0.722467 -0.408794 -0.557610
vn 0.356228 -0.394237 -0.847160
vn 0.402179 -0.056185 -0.913836
vn 0.774044 -0.029348 -0.632451
vn 0.774044 -0.029348 -0.632451
vn 0.402179 -0.056185 -0.913836
vn 0.343144 0.285848 -0.894731
vn 0.707781 0.354566 -0.611006
vn 0.707781 0.354566 -0.611006
vn 0.343144 0.285848 -0.894731
vn -0.078056 0.432080 -0.898451
vn 0.533764 0.684501 -0.496542
vn 0.533764 0.684501 -0.496542
vn -0.078056 0.432080 -0.898451
vn -0.039318 0.780891 -0.623428
vn 0.278487 0.910227 -0.306483
vn 0.278487 0.910227 -0.306483
vn -0.039318 0.780891 -0.623428
vn -0.304519 0.858536 -0.412534
vn -0.019188 0.997379 -0.069766
vn -0.019188 0.997379 -0.069766
vn -0.304519 0.858536 -0.412534
vn -0.567117 0.800903 -0.192178
vn -0.313941 0.932689 0.177574
vn -0.313941 0.932689 0.177574
vn -0.567117 0.800903 -0.192178
vn -0.844556 0.461142 -0.272165
vn -0.560900 0.726006 0.397879
vn -0.560900 0.726006 0.397879
vn -0.844556 0.461142 -0.272165
vn -0.931077 0.334161 0.146401
vn -0.722467 0.408794 0.557610
vn -0.722467 0.408794 0.557610
vn -0.931077 0.334161 0.146401
vn -0.977028 -0.003892 0.213077
vn -0.774044 0.029348 0.632451
vn -0.774044 0.029348 0.632451
vn -0.977028 -0.003892 0.213077
vn -0.917993 -0.345924 0.193972
vn -0.707781 -0.354566 0.611006
vn -0.707781 -0.354566 0.611006
vn -0.917993 -0.345924 0.193972
vn -0.825555 -0.526515 -0.203079
vn -0.533764 -0.684501 0.496542
vn -0.533764 -0.684501 0.496542
vn -0.825555 -0.526515 -0.203079
vn -0.535531 -0.840968 -0.077331
vn -0.278487 -0.910227 0.306483
vn -0.278487 -0.910227 0.306483
vn -0.535531 -0.840968 -0.077331
vn -0.270330 -0.918612 -0.288225
vn 0.019188 -0.997379 0.069766
vn 0.019188 -0.997379 0.069766
vn -0.270330 -0.918612 -0.288225
vn -0.007732 -0.860979 -0.508581
vn 0.313941 -0.932689 -0.177574
vn 0.313941 -0.932689 -0.177574
vn -0.007732 -0.860979 -0.508581
vn -0.059055 -0.555577 -0.829365
vn 0.560900 -0.726006 -0.397879
vn 0.445990 -0.845595 -0.293363
vn 0.445990 -0.845595 -0.293363
vn 0.445990 -0.845595 -0.293363
vn 0.445990 -0.845595 -0.293363
vn 0.722467 -0.408794 -0.557610
vn 0.931077 -0.334161 -0.146401
vn 0.787135 -0.616767 -0.004094
vn 0.560900 -0.726006 -0.397879
vn 0.774044 -0.029348 -0.632451
vn 0.977028 0.003892 -0.213077
vn 0.931077 -0.334161 -0.146401
vn 0.722467 -0.408794 -0.557610
vn 0.707781 0.354566 -0.611006
vn 0.917993 0.345924 -0.193972
vn 0.977028 0.003892 -0.213077
vn 0.774044 -0.029348 -0.632451
vn 0.533764 0.684501 -0.496542
vn 0.762960 0.639866 -0.091994
vn 0.917993 0.345924 -0.193972
vn 0.707781 0.354566 -0.611006
vn 0.278487 0.910227 -0.306483
vn 0.535531 0.840968 0.077331
vn 0.762960 0.639866 -0.091994
vn 0.533764 0.684501 -0.496542
vn -0.019188 0.997379 -0.069766
vn 0.270330 0.918612 0.288225
vn 0.535531 0.840968 0.077331
vn 0.278487 0.910227 -0.306483
vn -0.313941 0.932689 0.177574
vn 0.007732 0.860979 0.508581
vn 0.270330 0.918612 0.288225
vn -0.019188 0.997379 -0.069766
vn -0.560900 0.726006 0.397879
vn -0.212286 0.676843 0.704853
vn 0.007732 0.860979 0.508581
vn -0.313941 0.932689 0.177574
vn -0.722467 0.408794 0.557610
vn -0.356228 0.394237 0.847160
vn -0.212286 0.676843 0.704853
vn -0.560900 0.726006 0.397879
vn -0.774044 0.029348 0.632451
vn -0.402179 0.056185 0.913836
vn -0.356228 0.394237 0.847160
vn -0.722467 0.408794 0.557610
vn -0.707781 -0.354566 0.611006
vn -0.343144 -0.285848 0.894731
vn -0.402179 0.056185 0.913836
vn -0.774044 0.029348 0.632451
vn -0.533764 -0.684501 0.496542
vn -0.188111 -0.579790 0.792753
vn -0.343144 -0.285848 0.894731
vn -0.707781 -0.354566 0.611006
vn -0.278487 -0.910227 0.306483
vn 0.039318 -0.780891 0.623428
vn -0.188111 -0.579790 0.792753
vn -0.533764 -0.684501 0.496542
vn 0.019188 -0.997379 0.069766
vn 0.304519 -0.858536 0.412534
vn 0.039318 -0.780891 0.623428
vn -0.278487 -0.910227 0.306483
vn 0.313941 -0.932689 -0.177574
vn 0.567117 -0.800903 0.192178
vn 0.304519 -0.858536 0.412534
vn 0.019188 -0.997379 0.069766
vn 0.931077 -0.334161 -0.146401
vn 0.977028 0.003892 -0.213077
vn 0.917993 0.345924 -0.193972
vn 0.762960 0.639866 -0.091994
vn 0.535531 0.840968 0.077331
vn 0.270330 0.918612 0.288225
vn 0.007732 0.860979 0.508581
vn -0.212286 0.676843 0.704853
vn -0.356228 0.394237 0.847160
vn -0.402179 0.056185 0.913836
vn -0.343144 -0.285848 0.894731
vn -0.188111 -0.579790 0.792753
vn 0.039318 -0.780891 0.623428
vn 0.304519 -0.858536 0.412534
vn 0.567117 -0.800903 0.192178
vn 0.787135 -0.616767 -0.004094
vn -0.059055 -0.555577 -0.829365
vn -0.192876 -0.473160 -0.859604
vn -0.208543 0.341196 -0.916567
vn -0.078056 0.432080 -0.898451
vn 0.343144 0.285848 -0.894731
vn 0.402179 -0.056185 -0.913836
vn 0.356228 -0.394237 -0.847160
vn -0.007732 -0.860979 -0.508581
vn -0.270330 -0.918612 -0.288225
vn -0.535531 -0.840968 -0.077331
vn -0.825555 -0.526515 -0.203079
vn -0.824881 -0.449197 -0.343210
vn -0.192876 -0.473160 -0.859604
vn -0.059055 -0.555577 -0.829365
vn -0.917993 -0.345924 0.193972
vn -0.977028 -0.003892 0.213077
vn -0.931077 0.334161 0.146401
vn -0.844556 0.461142 -0.272165
vn -0.840548 0.365159 -0.400173
vn -0.824881 -0.449197 -0.343210
vn -0.825555 -0.526515 -0.203079
vn -0.567117 0.800903 -0.192178
vn -0.304519 0.858536 -0.412534
vn -0.039318 0.780891 -0.623428
vn -0.078056 0.432080 -0.898451
vn -0.208543 0.341196 -0.916567
vn -0.840548 0.365159 -0.400173
vn -0.844556 0.461142 -0.272165
vn -0.192876 -0.473160 -0.859604
vn 0.590025 -0.799338 0.113711
vn 0.558692 0.829375 -0.000216
vn -0.208543 0.341196 -0.916567
vn -0.208543 0.341196 -0.916567
vn 0.558692 0.829375 -0.000216
vn -0.029414 0.992297 -0.120336
vn -0.634686 0.721321 0.277255
vn -0.840548 0.365159 -0.400173
vn -0.840548 0.365159 -0.400173
vn -0.634686 0.721321 0.277255
vn -0.607352 -0.699476 0.376638
vn -0.824881 -0.449197 -0.343210
vn -0.824881 -0.449197 -0.343210
vn -0.607352 -0.699476 0.376638
vn 0.008910 -0.999780 0.019007
vn 0.590025 -0.799338 0.113711
vn -0.192876 -0.473160 -0.859604
vn -0.029414 0.992297 -0.120336
vn -0.197807 -0.072186 -0.977579
vn -0.983311 -0.006198 0.181826
vn -0.634686 0.721321 0.277255
vn 0.008910 -0.999780 0.019007
vn -0.607352 -0.699476 0.376638
vn -0.983311 -0.006198 0.181826
vn -0.197807 -0.072186 -0.977579
vn 0.008910 -0.999780 0.019007
vn 0.024677 -0.999695 -0.000117
vn 0.033947 -0.999423 0.001029
vn 0.044472 -0.999000 0.004556
vn 0.057238 -0.998301 0.010881
vn 0.067138 -0.997571 0.018587
vn 0.500949 -0.659086 0.560942
vn 0.590025 -0.799338 0.113711
vn -0.634686 0.721321 0.277255
vn -0.983311 -0.006198 0.181826
vn -0.607352 -0.699476 0.376638
vn 0.558692 0.829375 -0.000216
vn 0.473852 0.749422 0.462419
vn 0.028857 0.992282 -0.120600
vn 0.018957 0.991553 -0.128307
vn 0.006190 0.990876 -0.134633
vn -0.004333 0.990401 -0.138157
vn -0.013604 0.990156 -0.139305
vn -0.029414 0.992297 -0.120336
vn 0.590025 -0.799338 0.113711
vn 0.500949 -0.659086 0.560942
vn 0.473852 0.749422 0.462419
vn 0.558692 0.829375 -0.000216
vn 0.473852 0.749422 0.462419
vn 0.804841 0.056807 0.590765
vn 0.684810 -0.037730 -0.727744
vn 0.028857 0.992282 -0.120600
vn 0.500949 -0.659086 0.560942
vn 0.804841 0.056807 0.590765
vn 0.473852 0.749422 0.462419
vn 0.067138 -0.997571 0.018587
vn 0.684810 -0.037730 -0.727744
vn 0.804841 0.056807 0.590765
vn 0.500949 -0.659086 0.560942
vn -0.013604 0.990156 -0.139305
vn 0.078985 -0.068048 -0.994551
vn -0.197807 -0.072186 -0.977579
vn -0.029414 0.992297 -0.120336
vn -0.004333 0.990401 -0.138157
vn 0.210658 -0.064179 -0.975451
vn 0.078985 -0.068048 -0.994551
vn -0.013604 0.990156 -0.139305
vn 0.006190 0.990876 -0.134633
vn 0.362309 -0.058099 -0.930246
vn 0.210658 -0.064179 -0.975451
vn -0.004333 0.990401 -0.138157
vn 0.018957 0.991553 -0.128307
vn 0.543698 -0.048150 -0.837898
vn 0.362309 -0.058099 -0.930246
vn 0.006190 0.990876 -0.134633
vn 0.024677 -0.999695 -0.000117
vn 0.078985 -0.068048 -0.994551
vn 0.210658 -0.064179 -0.975451
vn 0.033947 -0.999423 0.001029
vn 0.033947 -0.999423 0.001029
vn 0.210658 -0.064179 -0.975451
vn 0.362309 -0.058099 -0.930246
vn 0.044472 -0.999000 0.004556
vn 0.044472 -0.999000 0.004556
vn 0.362309 -0.058099 -0.930246
vn 0.543698 -0.048150 -0.837898
vn 0.057238 -0.998301 0.010881
vn 0.057238 -0.998301 0.010881
vn 0.543698 -0.048150 -0.837898
vn 0.684810 -0.037730 -0.727744
vn 0.067138 -0.997571 0.018587
vn -0.197807 -0.072186 -0.977579
vn 0.078985 -0.068048 -0.994551
vn 0.024677 -0.999695 -0.000117
vn 0.008910 -0.999780 0.019007
vn 0.684810 -0.037730 -0.727744
vn 0.543698 -0.048150 -0.837898
vn 0.018957 0.991553 -0.128307
vn 0.028857 0.992282 -0.120600
s off
g cylinder2_brass1
usemtl initialShadingGroup
f 1//1 34//2 33//3 2//4
f 2//5 33//6 48//7 3//8
f 3//9 48//10 47//11 4//12
f 4//13 47//14 46//15 5//16
f 5//17 46//18 45//19 6//20
f 6//21 45//22 44//23 7//24
f 7//25 44//26 43//27 8//28
f 8//29 43//30 42//31 9//32
f 9//33 42//34 41//35 10//36
f 10//37 41//38 40//39 11//40
f 11//41 40//42 39//43 12//44
f 12//45 39//46 38//47 13//48
f 13//49 38//50 37//51 14//52
f 14//53 37//54 36//55 15//56
f 15//57 36//58 35//59 16//60
f 16//61 35//62 34//63 1//64
f 79//65 80//66 81//67 82//68
f 83//69 84//70 80//71 79//72
f 85//73 86//74 84//75 83//76
f 87//77 88//78 86//79 85//80
f 89//81 90//82 88//83 87//84
f 91//85 92//86 90//87 89//88
f 93//89 94//90 92//91 91//92
f 95//93 96//94 94//95 93//96
f 97//97 98//98 96//99 95//100
f 99//101 100//102 98//103 97//104
f 101//105 102//106 100//107 99//108
f 103//109 104//110 102//111 101//112
f 105//113 106//114 104//115 103//116
f 107//117 108//118 106//119 105//120
f 109//121 110//122 108//123 107//124
f 82//125 81//126 110//127 109//128
f 84//129 86//130 88//131 90//132 92//133 94//134 96//135 98//136 100//137 102//138 104//139 106//140 108//141 110//142 81//143 80//144
f 111//145 112//146 113//147 114//148 115//149 116//150 117//151
f 118//152 119//153 120//154 121//155 122//156 112//157 111//158
f 123//159 124//160 125//161 126//162 127//163 122//164 121//165
f 128//166 129//167 130//168 114//169 113//170 127//171 126//172
f 112//173 131//174 132//175 113//176
f 113//177 132//178 133//179 134//180 127//181
f 127//182 134//183 135//184 122//185
f 122//186 135//187 136//188 131//189 112//190
f 133//191 137//192 138//193 134//194
f 136//195 135//196 138//197 137//198
f 136//199 139//200 140//201 141//202 142//203 143//204 144//205 131//206
f 134//207 138//208 135//209
f 132//210 145//211 146//212 147//213 148//214 149//215 150//216 133//217
f 131//218 144//219 145//220 132//221
f 145//222 151//223 152//224 146//225
f 144//226 151//227 145//228
f 143//229 152//230 151//231 144//232
f 150//233 153//234 137//235 133//236
f 149//237 154//238 153//239 150//240
f 148//241 155//242 154//243 149//244
f 147//245 156//246 155//247 148//248
f 139//249 153//250 154//251 140//252
f 140//253 154//254 155//255 141//256
f 141//257 155//258 156//259 142//260
f 142//261 156//262 152//263 143//264
f 137//265 153//266 139//267 136//268
f 152//269 156//270 147//271 146//272
