# This file uses centimeters as units for non-parametric coordinates.

mtllib knife.mtl
g default
v -0.050352 0.149266 0.364025
v -0.040492 0.168625 0.349612
v -0.037344 0.191782 0.342858
v -0.041388 0.215212 0.344793
v -0.052008 0.235347 0.355122
v -0.067587 0.249123 0.372273
v -0.085754 0.254442 0.393634
v -0.103742 0.250494 0.415953
v -0.118814 0.237880 0.435833
v -0.128674 0.218521 0.450246
v -0.131822 0.195364 0.457000
v -0.127778 0.171934 0.455065
v -0.117158 0.151799 0.444736
v -0.101578 0.138023 0.427585
v -0.083412 0.132704 0.406224
v -0.065423 0.136652 0.383905
v 0.179658 0.173304 0.778612
v 0.189518 0.192663 0.764198
v 0.192666 0.215820 0.757445
v 0.188622 0.239249 0.759380
v 0.178002 0.259385 0.769709
v 0.162422 0.273161 0.786859
v 0.144256 0.278479 0.808220
v 0.126267 0.274531 0.830540
v 0.111196 0.261918 0.850419
v 0.101336 0.242559 0.864833
v 0.098188 0.219402 0.871587
v 0.102232 0.195972 0.869652
v 0.112852 0.175837 0.859323
v 0.128431 0.162061 0.842172
v 0.146598 0.156742 0.820811
v 0.164586 0.160690 0.798492
v -0.080608 0.164432 0.277303
v -0.090468 0.145074 0.291717
v -0.105540 0.132460 0.311597
v -0.123528 0.128512 0.333916
v -0.141695 0.133831 0.355277
v -0.157274 0.147606 0.372427
v -0.167894 0.167742 0.382756
v -0.171938 0.191172 0.384691
v -0.168790 0.214329 0.377938
v -0.158930 0.233688 0.363524
v -0.143858 0.246301 0.343644
v -0.125870 0.250249 0.321325
v -0.107703 0.244930 0.299964
v -0.092124 0.231155 0.282814
v -0.081504 0.211019 0.272485
v -0.077460 0.187589 0.270549
v -0.108201 0.182597 0.308469
v -0.108438 0.194922 0.307195
v -0.141197 0.196164 0.346771
v -0.140960 0.183839 0.348046
v -0.605059 0.143022 -0.587952
v -0.604822 0.130696 -0.586677
v -0.645737 0.131086 -0.561803
v -0.645974 0.143411 -0.563078
v -0.153034 0.190262 0.226813
v -0.152797 0.177936 0.228087
v -0.024401 0.185385 0.071407
v -0.024164 0.173059 0.072681
v -0.315509 0.144663 -0.409086
v -0.315746 0.156989 -0.410361
v -0.562435 0.143812 -0.588576
v -0.512663 0.145349 -0.576316
v -0.457942 0.147404 -0.555137
v -0.406375 0.150282 -0.515264
v -0.562198 0.131487 -0.587301
v -0.512426 0.133024 -0.575041
v -0.457705 0.135079 -0.553862
v -0.406138 0.137957 -0.513989
v -0.616683 0.132574 -0.673124
v -0.275554 0.148618 -0.472692
v -0.557694 0.133667 -0.673988
v -0.500252 0.135442 -0.659839
v -0.436569 0.137833 -0.635190
v -0.374432 0.141301 -0.587145
v 0.019229 0.177349 0.014758
v -0.667998 0.133062 -0.641927
vn 0.586662 -0.759351 -0.281448
vn -0.074594 -0.701762 -0.708495
vn 0.455885 -0.504528 -0.733226
vn 0.792395 -0.448362 -0.413619
vn 0.792395 -0.448362 -0.413619
vn 0.455885 -0.504528 -0.733226
vn 0.543846 -0.075976 -0.835738
vn 0.874774 -0.033167 -0.483395
vn 0.874774 -0.033167 -0.483395
vn 0.543846 -0.075976 -0.835738
vn 0.456262 0.380078 -0.804591
vn 0.792598 0.397055 -0.462748
vn 0.792598 0.397055 -0.462748
vn 0.456262 0.380078 -0.804591
vn -0.104121 0.576363 -0.810534
vn 0.573503 0.735462 -0.360817
vn 0.573503 0.735462 -0.360817
vn -0.104121 0.576363 -0.810534
vn -0.044261 0.879067 -0.474639
vn 0.285867 0.934349 -0.212771
vn 0.285867 0.934349 -0.212771
vn -0.044261 0.879067 -0.474639
vn -0.319634 0.901151 -0.292849
vn -0.019213 0.998699 -0.047245
vn -0.019213 0.998699 -0.047245
vn -0.319634 0.901151 -0.292849
vn -0.572887 0.809051 -0.131294
vn -0.316662 0.940772 0.121135
vn -0.316662 0.940772 0.121135
vn -0.572887 0.809051 -0.131294
vn -0.862057 0.470699 -0.187882
vn -0.586662 0.759351 0.281448
vn -0.586662 0.759351 0.281448
vn -0.862057 0.470699 -0.187882
vn -0.936538 0.336121 0.099593
vn -0.792395 0.448362 0.413619
vn -0.792395 0.448362 0.413619
vn -0.936538 0.336121 0.099593
vn -0.989289 -0.003940 0.145914
vn -0.874774 0.033167 0.483395
vn -0.874774 0.033167 0.483395
vn -0.989289 -0.003940 0.145914
vn -0.927510 -0.349511 0.132545
vn -0.792598 -0.397055 0.462748
vn -0.792598 -0.397055 0.462748
vn -0.927510 -0.349511 0.132545
vn -0.834950 -0.532507 -0.138907
vn -0.573503 -0.735462 0.360817
vn -0.573503 -0.735462 0.360817
vn -0.834950 -0.532507 -0.138907
vn -0.536402 -0.842335 -0.052384
vn -0.285867 -0.934349 0.212771
vn -0.285867 -0.934349 0.212771
vn -0.536402 -0.842335 -0.052384
vn -0.276637 -0.940043 -0.199477
vn 0.019213 -0.998699 0.047245
vn 0.019213 -0.998699 0.047245
vn -0.276637 -0.940043 -0.199477
vn -0.008339 -0.928606 -0.370975
vn 0.316662 -0.940772 -0.121135
vn 0.316662 -0.940772 -0.121135
vn -0.008339 -0.928606 -0.370975
vn -0.074594 -0.701762 -0.708495
vn 0.586662 -0.759351 -0.281448
s off
g cylinder2_brass
usemtl initialShadingGroup
f 1//1 34//2 33//3 2//4
f 2//5 33//6 48//7 3//8
f 3//9 48//10 47//11 4//12
f 4//13 47//14 46//15 5//16
f 5//17 46//18 45//19 6//20
f 6//21 45//22 44//23 7//24
f 7//25 44//26 43//27 8//28
f 8//29 43//30 42//31 9//32
f 9//33 42//34 41//35 10//36
f 10//37 41//38 40//39 11//40
f 11//41 40//42 39//43 12//44
f 12//45 39//46 38//47 13//48
f 13//49 38//50 37//51 14//52
f 14//53 37//54 36//55 15//56
f 15//57 36//58 35//59 16//60
f 16//61 35//62 34//63 1//64
g default
v -0.050352 0.149266 0.364025
v 0.179658 0.173304 0.778612
v 0.164586 0.160690 0.798492
v -0.065423 0.136652 0.383905
v -0.040492 0.168625 0.349612
v 0.189518 0.192663 0.764198
v -0.037344 0.191782 0.342858
v 0.192666 0.215820 0.757445
v -0.041388 0.215212 0.344793
v 0.188622 0.239249 0.759380
v -0.052008 0.235347 0.355122
v 0.178002 0.259385 0.769709
v -0.067587 0.249123 0.372273
v 0.162422 0.273161 0.786859
v -0.085754 0.254442 0.393634
v 0.144256 0.278479 0.808220
v -0.103742 0.250494 0.415953
v 0.126267 0.274531 0.830540
v -0.118814 0.237880 0.435833
v 0.111196 0.261918 0.850419
v -0.128674 0.218521 0.450246
v 0.101336 0.242559 0.864833
v -0.131822 0.195364 0.457000
v 0.098188 0.219402 0.871587
v -0.127778 0.171934 0.455065
v 0.102232 0.195972 0.869652
v -0.117158 0.151799 0.444736
v 0.112852 0.175837 0.859323
v -0.101578 0.138023 0.427585
v 0.128431 0.162061 0.842172
v -0.083412 0.132704 0.406224
v 0.146598 0.156742 0.820811
v -0.090468 0.145074 0.291717
v -0.108201 0.182597 0.308469
v -0.108438 0.194922 0.307195
v -0.092124 0.231155 0.282814
v -0.081504 0.211019 0.272485
v -0.077460 0.187589 0.270549
v -0.080608 0.164432 0.277303
v -0.105540 0.132460 0.311597
v -0.123528 0.128512 0.333916
v -0.141695 0.133831 0.355277
v -0.157274 0.147606 0.372427
v -0.140960 0.183839 0.348046
v -0.167894 0.167742 0.382756
v -0.171938 0.191172 0.384691
v -0.168790 0.214329 0.377938
v -0.158930 0.233688 0.363524
v -0.141197 0.196164 0.346771
v -0.143858 0.246301 0.343644
v -0.125870 0.250249 0.321325
v -0.107703 0.244930 0.299964
v -0.152797 0.177936 0.228087
v -0.153034 0.190262 0.226813
v -0.605059 0.143022 -0.587952
v -0.645974 0.143411 -0.563078
v -0.645737 0.131086 -0.561803
v -0.604822 0.130696 -0.586677
v -0.616683 0.132574 -0.673124
v -0.667998 0.133062 -0.641927
v -0.562198 0.131487 -0.587301
v -0.512426 0.133024 -0.575041
v -0.457705 0.135079 -0.553862
v -0.406138 0.137957 -0.513989
v -0.315509 0.144663 -0.409086
v -0.024164 0.173059 0.072681
v -0.024401 0.185385 0.071407
v -0.315746 0.156989 -0.410361
v -0.406375 0.150282 -0.515264
v -0.457942 0.147404 -0.555137
v -0.512663 0.145349 -0.576316
v -0.562435 0.143812 -0.588576
v 0.019229 0.177349 0.014758
v -0.275554 0.148618 -0.472692
v -0.557694 0.133667 -0.673988
v -0.500252 0.135442 -0.659839
v -0.436569 0.137833 -0.635190
v -0.374432 0.141301 -0.587145
vn 0.456783 -0.866058 -0.203205
vn 0.456783 -0.866058 -0.203205
vn 0.456783 -0.866058 -0.203205
vn 0.456783 -0.866058 -0.203205
vn 0.792395 -0.448362 -0.413619
vn 0.936538 -0.336121 -0.099593
vn 0.787139 -0.616770 -0.002769
vn 0.586662 -0.759351 -0.281448
vn 0.874774 -0.033167 -0.483395
vn 0.989289 0.003940 -0.145914
vn 0.936538 -0.336121 -0.099593
vn 0.792395 -0.448362 -0.413619
vn 0.792598 0.397055 -0.462748
vn 0.927510 0.349511 -0.132545
vn 0.989289 0.003940 -0.145914
vn 0.874774 -0.033167 -0.483395
vn 0.573503 0.735462 -0.360817
vn 0.764718 0.641341 -0.062360
vn 0.927510 0.349511 -0.132545
vn 0.792598 0.397055 -0.462748
vn 0.285867 0.934349 -0.212771
vn 0.536402 0.842335 0.052384
vn 0.764718 0.641341 -0.062360
vn 0.573503 0.735462 -0.360817
vn -0.019213 0.998699 -0.047245
vn 0.276637 0.940043 0.199477
vn 0.536402 0.842335 0.052384
vn 0.285867 0.934349 -0.212771
vn -0.316662 0.940772 0.121135
vn 0.008339 0.928606 0.370975
vn 0.276637 0.940043 0.199477
vn -0.019213 0.998699 -0.047245
vn -0.586662 0.759351 0.281448
vn -0.248390 0.791955 0.557772
vn 0.008339 0.928606 0.370975
vn -0.316662 0.940772 0.121135
vn -0.792395 0.448362 0.413619
vn -0.455885 0.504528 0.733226
vn -0.248390 0.791955 0.557772
vn -0.586662 0.759351 0.281448
vn -0.874774 0.033167 0.483395
vn -0.543846 0.075976 0.835738
vn -0.455885 0.504528 0.733226
vn -0.792395 0.448362 0.413619
vn -0.792598 -0.397055 0.462748
vn -0.456262 -0.380078 0.804591
vn -0.543846 0.075976 0.835738
vn -0.874774 0.033167 0.483395
vn -0.573503 -0.735462 0.360817
vn -0.231725 -0.714216 0.660453
vn -0.456262 -0.380078 0.804591
vn -0.792598 -0.397055 0.462748
vn -0.285867 -0.934349 0.212771
vn 0.044261 -0.879067 0.474639
vn -0.231725 -0.714216 0.660453
vn -0.573503 -0.735462 0.360817
vn 0.019213 -0.998699 0.047245
vn 0.319634 -0.901151 0.292849
vn 0.044261 -0.879067 0.474639
vn -0.285867 -0.934349 0.212771
vn 0.316662 -0.940772 -0.121135
vn 0.572887 -0.809051 0.131294
vn 0.319634 -0.901151 0.292849
vn 0.019213 -0.998699 0.047245
vn 0.936538 -0.336121 -0.099593
vn 0.989289 0.003940 -0.145914
vn 0.927510 0.349511 -0.132545
vn 0.764718 0.641341 -0.062360
vn 0.536402 0.842335 0.052384
vn 0.276637 0.940043 0.199477
vn 0.008339 0.928606 0.370975
vn -0.248390 0.791955 0.557772
vn -0.455885 0.504528 0.733226
vn -0.543846 0.075976 0.835738
vn -0.456262 -0.380078 0.804591
vn -0.231725 -0.714216 0.660453
vn 0.044261 -0.879067 0.474639
vn 0.319634 -0.901151 0.292849
vn 0.572887 -0.809051 0.131294
vn 0.787139 -0.616770 -0.002769
vn -0.074594 -0.701762 -0.708495
vn -0.249198 -0.611327 -0.751119
vn -0.282704 0.462532 -0.840323
vn -0.104121 0.576363 -0.810534
vn 0.456262 0.380078 -0.804591
vn 0.543846 -0.075976 -0.835738
vn 0.455885 -0.504528 -0.733226
vn -0.008339 -0.928606 -0.370975
vn -0.276637 -0.940043 -0.199477
vn -0.536402 -0.842335 -0.052384
vn -0.834950 -0.532507 -0.138907
vn -0.852577 -0.464280 -0.239909
vn -0.249198 -0.611327 -0.751119
vn -0.074594 -0.701762 -0.708495
vn -0.927510 -0.349511 0.132545
vn -0.989289 -0.003940 0.145914
vn -0.936538 0.336121 0.099593
vn -0.862057 0.470699 -0.187882
vn -0.879633 0.382139 -0.283225
vn -0.852577 -0.464280 -0.239909
vn -0.834950 -0.532507 -0.138907
vn -0.572887 0.809051 -0.131294
vn -0.319634 0.901151 -0.292849
vn -0.044261 0.879067 -0.474639
vn -0.104121 0.576363 -0.810534
vn -0.282704 0.462532 -0.840323
vn -0.879633 0.382139 -0.283225
vn -0.862057 0.470699 -0.187882
vn -0.249198 -0.611327 -0.751119
vn 0.592106 -0.802156 0.077175
vn 0.558692 0.829375 -0.000146
vn -0.282704 0.462532 -0.840323
vn -0.282704 0.462532 -0.840323
vn 0.558692 0.829375 -0.000146
vn -0.029530 0.996219 -0.081706
vn -0.648351 0.736852 0.191547
vn -0.879633 0.382139 -0.283225
vn -0.879633 0.382139 -0.283225
vn -0.648351 0.736852 0.191547
vn -0.632169 -0.728057 0.265132
vn -0.852577 -0.464280 -0.239909
vn -0.852577 -0.464280 -0.239909
vn -0.632169 -0.728057 0.265132
vn 0.008911 -0.999878 0.012856
vn 0.592106 -0.802156 0.077175
vn -0.249198 -0.611327 -0.751119
vn -0.029530 0.996219 -0.081706
vn -0.285079 -0.104034 -0.952841
vn -0.992251 -0.006255 0.124089
vn -0.648351 0.736852 0.191547
vn 0.008911 -0.999878 0.012856
vn -0.632169 -0.728057 0.265132
vn -0.992251 -0.006255 0.124089
vn -0.285079 -0.104034 -0.952841
vn 0.008911 -0.999878 0.012856
vn 0.024677 -0.999695 -0.000079
vn 0.033947 -0.999423 0.000696
vn 0.044472 -0.999006 0.003081
vn 0.057240 -0.998333 0.007359
vn 0.067144 -0.997664 0.012572
vn 0.550107 -0.723761 0.416597
vn 0.592106 -0.802156 0.077175
vn -0.648351 0.736852 0.191547
vn -0.992251 -0.006255 0.124089
vn -0.632169 -0.728057 0.265132
vn 0.558692 0.829375 -0.000146
vn 0.503991 0.797089 0.332630
vn 0.028971 0.996220 -0.081887
vn 0.019042 0.996012 -0.087165
vn 0.006221 0.995785 -0.091505
vn -0.004356 0.995570 -0.093924
vn -0.013676 0.995411 -0.094713
vn -0.029530 0.996219 -0.081706
vn 0.592106 -0.802156 0.077175
vn 0.550107 -0.723761 0.416597
vn 0.503991 0.797089 0.332630
vn 0.558692 0.829375 -0.000146
vn 0.503991 0.797089 0.332630
vn 0.893921 0.063094 0.443761
vn 0.811219 -0.044695 -0.583032
vn 0.028971 0.996220 -0.081887
vn 0.550107 -0.723761 0.416597
vn 0.893921 0.063094 0.443761
vn 0.503991 0.797089 0.332630
vn 0.067144 -0.997664 0.012572
vn 0.811219 -0.044695 -0.583032
vn 0.893921 0.063094 0.443761
vn 0.550107 -0.723761 0.416597
vn -0.013676 0.995411 -0.094713
vn 0.116043 -0.099974 -0.988200
vn -0.285079 -0.104034 -0.952841
vn -0.029530 0.996219 -0.081706
vn -0.004356 0.995570 -0.093924
vn 0.302891 -0.092279 -0.948547
vn 0.116043 -0.099974 -0.988200
vn -0.013676 0.995411 -0.094713
vn 0.006221 0.995785 -0.091505
vn 0.497458 -0.079772 -0.863813
vn 0.302891 -0.092279 -0.948547
vn -0.004356 0.995570 -0.093924
vn 0.019042 0.996012 -0.087165
vn 0.691027 -0.061198 -0.720234
vn 0.497458 -0.079772 -0.863813
vn 0.006221 0.995785 -0.091505
vn 0.024677 -0.999695 -0.000079
vn 0.116043 -0.099974 -0.988200
vn 0.302891 -0.092279 -0.948547
vn 0.033947 -0.999423 0.000696
vn 0.033947 -0.999423 0.000696
vn 0.302891 -0.092279 -0.948547
vn 0.497458 -0.079772 -0.863813
vn 0.044472 -0.999006 0.003081
vn 0.044472 -0.999006 0.003081
vn 0.497458 -0.079772 -0.863813
vn 0.691027 -0.061198 -0.720234
vn 0.057240 -0.998333 0.007359
vn 0.057240 -0.998333 0.007359
vn 0.691027 -0.061198 -0.720234
vn 0.811219 -0.044695 -0.583032
vn 0.067144 -0.997664 0.012572
vn -0.285079 -0.104034 -0.952841
vn 0.116043 -0.099974 -0.988200
vn 0.024677 -0.999695 -0.000079
vn 0.008911 -0.999878 0.012856
vn 0.811219 -0.044695 -0.583032
vn 0.691027 -0.061198 -0.720234
vn 0.019042 0.996012 -0.087165
vn 0.028971 0.996220 -0.081887
s off
g cylinder2_chrome
usemtl initialShadingGroup
f 79//65 80//66 81//67 82//68
f 83//69 84//70 80//71 79//72
f 85//73 86//74 84//75 83//76
f 87//77 88//78 86//79 85//80
f 89//81 90//82 88//83 87//84
f 91//85 92//86 90//87 89//88
f 93//89 94//90 92//91 91//92
f 95//93 96//94 94//95 93//96
f 97//97 98//98 96//99 95//100
f 99//101 100//102 98//103 97//104
f 101//105 102//106 100//107 99//108
f 103//109 104//110 102//111 101//112
f 105//113 106//114 104//115 103//116
f 107//117 108//118 106//119 105//120
f 109//121 110//122 108//123 107//124
f 82//125 81//126 110//127 109//128
f 84//129 86//130 88//131 90//132 92//133 94//134 96//135 98//136 100//137 102//138 104//139 106//140 108//141 110//142 81//143 80//144
f 111//145 112//146 113//147 114//148 115//149 116//150 117//151
f 118//152 119//153 120//154 121//155 122//156 112//157 111//158
f 123//159 124//160 125//161 126//162 127//163 122//164 121//165
f 128//166 129//167 130//168 114//169 113//170 127//171 126//172
f 112//173 131//174 132//175 113//176
f 113//177 132//178 133//179 134//180 127//181
f 127//182 134//183 135//184 122//185
f 122//186 135//187 136//188 131//189 112//190
f 133//191 137//192 138//193 134//194
f 136//195 135//196 138//197 137//198
f 136//199 139//200 140//201 141//202 142//203 143//204 144//205 131//206
f 134//207 138//208 135//209
f 132//210 145//211 146//212 147//213 148//214 149//215 150//216 133//217
f 131//218 144//219 145//220 132//221
f 145//222 151//223 152//224 146//225
f 144//226 151//227 145//228
f 143//229 152//230 151//231 144//232
f 150//233 153//234 137//235 133//236
f 149//237 154//238 153//239 150//240
f 148//241 155//242 154//243 149//244
f 147//245 156//246 155//247 148//248
f 139//249 153//250 154//251 140//252
f 140//253 154//254 155//255 141//256
f 141//257 155//258 156//259 142//260
f 142//261 156//262 152//263 143//264
f 137//265 153//266 139//267 136//268
f 152//269 156//270 147//271 146//272
